<svg width="320" height="59" viewBox="0 0 320 59" fill="none" xmlns="http://www.w3.org/2000/svg">
<g filter="url(#easter-egg-modal-bg-mobile-filter0_d)">
<path d="M57.0013 22.1959C40.5013 22.1959 36.0013 45.7061 24.0013 45.7061C16.3189 45.7061 12.4599 36.3445 1.00134 34.1474C1.0033 28.5199 0.999385 19.6641 1.00008 9.00086C1.00019 7.34418 2.34326 6 3.99993 6H316C317.657 6 319 7.34315 319 9V36.5927C319 37.19 318.869 37.7782 318.565 38.2925C317.03 40.8929 311.335 49 300 49C282 49 275 22.1959 255 22.1959C239.728 22.1959 232.501 40.8047 216.501 40.8047C200.501 40.8047 192.497 19.0612 181.001 19.0612C169.506 19.0612 166.997 34.1091 155.501 33.6898C144.006 33.2705 141.501 26.898 128.001 26.898C114.501 26.898 106.001 40.8047 94.0013 40.8047C82.0013 40.8047 73.5013 22.1959 57.0013 22.1959Z" fill="white"/>
</g>
<path d="M25.2539 20L21.1933 27.4506" stroke="#FFD02B" stroke-width="2" stroke-linecap="round" stroke-linejoin="round"/>
<path d="M152.504 18.8965L145.501 14.1042" stroke="#F38D00" stroke-width="2" stroke-linecap="round" stroke-linejoin="round"/>
<circle cx="216.504" cy="20" r="2" fill="#0097D8"/>
<circle cx="95.5" cy="17" r="2" fill="#3FBFAD"/>
<defs>
<filter id="easter-egg-modal-bg-mobile-filter0_d" x="-7" y="0" width="334" height="59" filterUnits="userSpaceOnUse" color-interpolation-filters="sRGB">
<feFlood flood-opacity="0" result="BackgroundImageFix"/>
<feColorMatrix in="SourceAlpha" type="matrix" values="0 0 0 0 0 0 0 0 0 0 0 0 0 0 0 0 0 0 1 0"/>
<feOffset dy="2"/>
<feGaussianBlur stdDeviation="4"/>
<feColorMatrix type="matrix" values="0 0 0 0 0 0 0 0 0 0 0 0 0 0 0 0 0 0 0.08 0"/>
<feBlend mode="normal" in2="BackgroundImageFix" result="effect1_dropShadow"/>
<feBlend mode="normal" in="SourceGraphic" in2="effect1_dropShadow" result="shape"/>
</filter>
</defs>
</svg>
