<svg width="367" height="64" viewBox="0 0 367 64" fill="none" xmlns="http://www.w3.org/2000/svg">
<g filter="url(#easter-egg-modal-bg-filter0_d)">
<path d="M97.5 22.1959C81 22.1959 76.5 45.7061 64.5 45.7061C55.7962 45.7061 52 33.6898 36.5 33.6898C29.1529 33.6898 21.0072 38.58 15.3124 42.8329C12.4666 44.9582 8 42.9784 8 39.4267V10C8 7.79086 9.79086 6 12 6H354.5C356.709 6 358.5 7.79086 358.5 10V39.5146C358.5 40.3534 358.242 41.1654 357.702 41.8067C355.106 44.8853 346.298 54 333 54C317 54 309.5 22.1959 294.228 22.1959C278.956 22.1959 273 40.8047 257 40.8047C241 40.8047 232.996 19.0612 221.5 19.0612C210.004 19.0612 207.496 34.1091 196 33.6898C184.504 33.2705 182 26.898 168.5 26.898C155 26.898 146.5 40.8047 134.5 40.8047C122.5 40.8047 114 22.1959 97.5 22.1959Z" fill="white"/>
</g>
<path d="M65.2539 19.999L61.1933 27.4496" stroke="#FFD02B" stroke-width="2" stroke-linecap="round" stroke-linejoin="round"/>
<path d="M192.504 18.8965L185.501 14.1042" stroke="#F38D00" stroke-width="2" stroke-linecap="round" stroke-linejoin="round"/>
<circle cx="256.502" cy="20" r="2" fill="#0097D8"/>
<circle cx="135.5" cy="16.999" r="2" fill="#3FBFAD"/>
<circle cx="25.5" cy="20.999" r="2" fill="#0097D8"/>
<defs>
<filter id="easter-egg-modal-bg-filter0_d" x="0" y="0" width="366.5" height="64" filterUnits="userSpaceOnUse" color-interpolation-filters="sRGB">
<feFlood flood-opacity="0" result="BackgroundImageFix"/>
<feColorMatrix in="SourceAlpha" type="matrix" values="0 0 0 0 0 0 0 0 0 0 0 0 0 0 0 0 0 0 1 0"/>
<feOffset dy="2"/>
<feGaussianBlur stdDeviation="4"/>
<feColorMatrix type="matrix" values="0 0 0 0 0 0 0 0 0 0 0 0 0 0 0 0 0 0 0.08 0"/>
<feBlend mode="normal" in2="BackgroundImageFix" result="effect1_dropShadow"/>
<feBlend mode="normal" in="SourceGraphic" in2="effect1_dropShadow" result="shape"/>
</filter>
</defs>
</svg>
